<?xml version="1.0" encoding="UTF-8" standalone="no"?>
<!-- Created with Inkscape (http://www.inkscape.org/) -->

<svg
   width="55.163429"
   height="30.017021"
   viewBox="0 0 14.595322 7.9420024"
   version="1.1"
   id="svg1"
   xmlns="http://www.w3.org/2000/svg"
   xmlns:svg="http://www.w3.org/2000/svg">
  <defs
     id="defs1" />
  <g
     id="layer1"
     transform="translate(-1.2674618,-4.6032135)">
    <path
       d="m 4.1919919,4.6095043 c 0.5378869,-0.012789 1.121249,-0.00212 1.6619779,-0.00212 h 3.157687 c -0.00995,0.1165304 -0.047607,0.3233005 -0.066081,0.4433836 L 8.8063078,5.9318506 6.9602972,5.9304306 H 2.1086579 c 0.380144,-0.8150015 1.209357,-1.2640695 2.083334,-1.3209137 z m -2.874888,6.6123847 c 0.778053,-0.01563 1.620056,0 2.404503,0 h 4.2554882 c -0.040501,0.36167 -0.1243464,0.810738 -0.181901,1.17454 l -0.022027,0.148505 H 3.3975959 c -0.223112,0 -0.51657,0.005 -0.734709,-0.027 -0.224534,-0.0334 -0.439831,-0.112978 -0.631679,-0.234482 -0.385829,-0.244429 -0.616048,-0.622442 -0.714104,-1.062273 z M 5.1036284,7.9171176 c 1.1169856,-0.014921 2.2716303,-0.00142 3.3907475,0 -0.014922,0.132873 -0.046186,0.3005629 -0.067502,0.4355676 L 8.287606,9.2373207 H 4.8918847 C 4.9679137,8.7989109 5.0297313,8.3569485 5.1029181,7.9178282 Z"
       class="cls-1"
       id="path1"
       style="fill:#eaeaea;stroke-width:0.071055" />
    <path
       d="m 4.0129329,7.9171176 c 0.07816,0 0.01634,-0.00284 0.7979487,-0.00284 -0.014921,0.132873 -0.2060598,1.3202031 -0.2060598,1.3202031 l -0.8029219,0.00284 c 0.07603,-0.4391203 0.137847,-0.8803723 0.211033,-1.3202031 z"
       class="cls-2"
       id="path2"
       style="fill:#444545;stroke-width:0.071055" />
    <path
       d="m 6.1666122,9.5684372 c 0.6842601,0 1.3813103,-0.00711 2.06486,0.00142 -0.012079,0.1413996 -0.049028,0.3439065 -0.071055,0.4867268 l -0.1286096,0.830634 -2.0705445,0.0014 z"
       class="cls-1"
       id="path3"
       style="fill:#eaeaea;stroke-width:0.071055" />
    <path
       d="m 6.6860247,6.2672191 c 0.2224024,-0.00568 0.4675422,-7.117e-4 0.6913658,-7.117e-4 H 8.7508847 C 8.7032777,6.675074 8.6116168,7.1738805 8.5455356,7.5859999 H 6.4785437 L 6.6860247,6.2679285 Z M 3.7450559,9.5712794 c 0.228086,-0.00711 0.486727,-0.00142 0.716235,-0.00142 H 5.8383378 C 5.7836248,9.9826893 5.7004909,10.439573 5.6358308,10.858088 l -0.00212,0.01919 c -0.041923,0.02558 -1.5745799,0.0078 -1.7273479,0.0071 -0.388672,-7.12e-4 -0.299853,-0.429883 -0.25722,-0.695629 0.03411,-0.2053496 0.06608,-0.4114092 0.09592,-0.6174689 z M 4.6815613,6.2686402 c 0.18048,-0.00853 0.4057245,-0.00284 0.5890465,-0.00213 l 1.081458,0.00142 -0.2046386,1.318782 H 5.7331761 l -1.6733462,-0.00142 c 0.01492,-0.1591634 0.05045,-0.3254323 0.07248,-0.4838851 0.05613,-0.4014611 0.07034,-0.7411043 0.5492554,-0.8327653 z"
       class="cls-2"
       id="path4"
       style="fill:#444545;stroke-width:0.071055" />
    <path
       d="m 1.9679689,6.265798 h 2.084755 c -0.185454,0.2472716 -0.188296,0.4043033 -0.233771,0.7034451 l -0.08313,0.5449923 c -0.0028,0.029133 -0.0021,0.041212 -0.01634,0.067502 -0.05898,0.010658 -0.493122,0.00426 -0.586204,0.00426 h -1.406891 c 0.07106,-0.4206459 0.123636,-0.9208736 0.241588,-1.320203 z m -0.551388,3.3033498 h 1.997358 c -0.03126,0.2067702 -0.06324,0.4135404 -0.09734,0.6203112 -0.02203,0.138557 -0.04405,0.273562 -0.0469,0.414251 -0.0021,0.09237 0.06253,0.208191 0.06821,0.283509 h -2.067702 c -0.02132,-0.38796 0.08669,-0.9180312 0.146373,-1.3180712 z m 0.260062,-1.6513196 c 0.648022,-0.013501 1.340809,-7.117e-4 1.992384,0 -0.04263,0.393645 -0.1414,0.9180314 -0.201797,1.3194925 h -1.996647 c 0.0135,-0.1342941 0.0469,-0.3133528 0.06821,-0.4497786 l 0.137847,-0.8690034 z m 7.1680345,-7.117e-4 c 0.7709474,-0.015632 1.6001596,-0.00142 2.3746596,-0.00142 h 4.359228 C 15.432903,8.2780773 15.252423,8.5367178 14.956123,8.792516 14.386972,9.2536633 13.950694,9.2366101 13.265013,9.2366101 H 12.273084 L 8.6386177,9.2351891 C 8.6549607,9.0916579 8.6869347,8.9168624 8.7096727,8.7726207 L 8.8446773,7.9164072 Z M 9.365511,4.6080824 c 0.3943556,-0.00639 0.797948,-0.00142 1.193014,-0.00142 h 3.307614 c 0.196822,0 0.497385,-0.00853 0.685681,0.017053 0.239455,0.034107 0.467542,0.1229252 0.666496,0.259351 0.375171,0.2600583 0.565599,0.6060965 0.64447,1.0473484 H 15.671648 L 9.1587407,5.9297031 C 9.2184267,5.5104783 9.2901926,5.0230405 9.365511,4.6080791 Z M 8.3295282,11.221887 c 0.2089019,-0.0078 0.4618579,-6.98e-4 0.673602,-0.0014 h 1.3329928 c -0.06963,0.402882 -0.158453,0.923006 -0.208191,1.323756 H 8.1206263 L 8.3288176,11.221178 Z M 8.5867475,9.5698572 c 0.6394956,-0.017053 1.3621255,-0.00355 2.0065945,0 -0.06892,0.4384108 -0.14211,0.8782418 -0.20677,1.3173618 H 8.3778456 C 8.4297156,10.478653 8.5199557,9.9841094 8.586037,9.5705689 Z M 9.920451,7.2072764 9.990085,6.7454185 h 0.802212 l -0.07958,0.5250969 c -0.0078,0.05116 -0.02416,0.095214 -0.04903,0.1321625 -0.02487,0.036949 -0.05471,0.068923 -0.09095,0.094503 -0.03553,0.02558 -0.07532,0.044054 -0.118662,0.056844 -0.04334,0.012079 -0.08882,0.018474 -0.135716,0.018474 H 9.2788239 c -0.045475,0 -0.088108,-0.0064 -0.1278991,-0.018474 -0.039791,-0.012079 -0.073187,-0.031264 -0.1016087,-0.056844 -0.027711,-0.02558 -0.048317,-0.056844 -0.061107,-0.094503 -0.01279,-0.037659 -0.015632,-0.081003 -0.00782,-0.1321625 L 9.091235,6.5436221 c 0.00782,-0.049738 0.024159,-0.093082 0.048317,-0.1314518 0.024159,-0.037659 0.054002,-0.069634 0.089529,-0.095214 0.035527,-0.02558 0.075318,-0.044765 0.1186619,-0.056844 0.044054,-0.012079 0.088108,-0.018474 0.1342941,-0.018474 h 1.386284 l -0.05045,0.3346694 H 9.9488688 c -0.015632,0 -0.030554,0.00355 -0.044054,0.010658 a 0.04476469,0.04476469 0 0 0 -0.024159,0.034817 l -0.088108,0.5840726 c -0.00426,0.020606 -7.117e-4,0.033396 0.010658,0.03837 0.011369,0.00497 0.02558,0.00782 0.041212,0.00782 0.015632,0 0.031264,-0.00284 0.046896,-0.00782 0.015632,-0.00497 0.024869,-0.017764 0.028422,-0.03837 z m 2.81307,-0.2778242 c -0.0078,0.052581 -0.02842,0.097346 -0.06253,0.1342941 -0.0334,0.036949 -0.07034,0.068213 -0.110135,0.093082 0.03198,0.020606 0.05898,0.046186 0.081,0.076739 0.02203,0.030554 0.03055,0.066792 0.02771,0.1072932 L 12.634755,7.5725 h -0.800791 l 0.03411,-0.2231129 c -0.0035,-0.033396 -0.01705,-0.059686 -0.03908,-0.078871 -0.02274,-0.019185 -0.04547,-0.031975 -0.06892,-0.039791 l -0.05258,0.3417748 H 10.904572 L 11.1085,6.2416387 h 1.384863 c 0.0469,0 0.09024,0.0064 0.130031,0.018474 0.03979,0.012079 0.07319,0.031264 0.101608,0.056844 0.02842,0.02558 0.04832,0.057555 0.06111,0.095214 0.01279,0.037659 0.01563,0.081713 0.0078,0.1314518 l -0.05969,0.3851185 z m -0.86474,-0.014922 c 0.01563,0 0.03126,-0.00355 0.04619,-0.010658 0.01492,-0.00711 0.02487,-0.021316 0.02771,-0.041922 l 0.03695,-0.2430083 c 0.0036,-0.017764 -0.0014,-0.029843 -0.01492,-0.036949 -0.0135,-0.00711 -0.02842,-0.010658 -0.04405,-0.010658 h -0.05969 l -0.05258,0.3439066 h 0.0604 z m 0.971322,0.6586805 0.203928,-1.3308613 h 0.802923 L 13.643026,7.573211 Z m 2.831545,-0.3026943 c -0.0078,0.05116 -0.02416,0.095214 -0.04832,0.1321624 -0.02416,0.036949 -0.054,0.068923 -0.08953,0.094503 -0.03553,0.02558 -0.07532,0.044054 -0.118662,0.056844 -0.04334,0.012079 -0.08882,0.018474 -0.135715,0.018474 h -1.384863 l 0.203928,-1.3308613 h 1.384863 c 0.0469,0 0.09024,0.0064 0.13003,0.018474 0.03979,0.012079 0.07319,0.031264 0.101609,0.056844 0.02842,0.02558 0.04832,0.057555 0.06111,0.095214 0.01279,0.037659 0.01563,0.081713 0.0078,0.1314519 l -0.110846,0.7268933 z m -0.817844,-0.033396 c 0.01492,-0.00497 0.02416,-0.017764 0.02771,-0.03837 l 0.08882,-0.5798093 c 0.0036,-0.017764 -0.0014,-0.029843 -0.01492,-0.036949 -0.0135,-0.00711 -0.02842,-0.010658 -0.04405,-0.010658 h -0.05969 l -0.103741,0.6743125 h 0.0604 c 0.01563,0 0.03055,-0.00284 0.04548,-0.00782 z"
       class="cls-1"
       id="path5"
       style="fill:#eaeaea;stroke-width:0.071055" />
  </g>
</svg>
