<svg xmlns="http://www.w3.org/2000/svg" id="Layer_1" data-name="Layer 1" viewBox="0 0 205.41 111.77"><defs><style>.cls-1{fill:#cccccb}</style></defs><path d="M41.16.09C48.73-.09 56.94.06 64.55.06h44.44c-.14 1.64-.67 4.55-.93 6.24l-1.96 12.4-25.98-.02H11.84C17.19 7.21 28.86.89 41.16.09ZM.7 93.15c10.95-.22 22.8 0 33.84 0h59.89c-.57 5.09-1.75 11.41-2.56 16.53l-.31 2.09H29.98c-3.14 0-7.27.07-10.34-.38-3.16-.47-6.19-1.59-8.89-3.3C5.32 104.65 2.08 99.33.7 93.14ZM53.99 46.64c15.72-.21 31.97-.02 47.72 0-.21 1.87-.65 4.23-.95 6.13L98.8 65.22H51.01c1.07-6.17 1.94-12.39 2.97-18.57Z"/><path d="M38.64 46.64c1.1 0 .23-.04 11.23-.04-.21 1.87-2.9 18.58-2.9 18.58l-11.3.04c1.07-6.18 1.94-12.39 2.97-18.58Z" class="cls-1"/><path d="M68.95 69.88c9.63 0 19.44-.1 29.06.02-.17 1.99-.69 4.84-1 6.85L95.2 88.44l-29.14.02 2.89-18.58Z"/><path d="M76.26 23.42c3.13-.08 6.58-.01 9.73-.01h19.33c-.67 5.75-1.96 12.77-2.89 18.57H73.34l2.92-18.55ZM34.87 69.92c3.21-.1 6.85-.02 10.08-.02h19.38c-.77 5.81-1.94 12.24-2.85 18.13l-.03.27c-.59.36-22.16.11-24.31.1-5.47-.01-4.22-6.05-3.62-9.79.48-2.89.93-5.79 1.35-8.69ZM48.05 23.44c2.54-.12 5.71-.04 8.29-.03l15.22.02-2.88 18.56h-5.83l-23.55-.02c.21-2.24.71-4.58 1.02-6.81.79-5.65.99-10.43 7.73-11.72Z" class="cls-1"/><path d="M9.86 23.4H39.2c-2.61 3.48-2.65 5.69-3.29 9.9l-1.17 7.67c-.04.41-.03.58-.23.95-.83.15-6.94.06-8.25.06H6.46c1-5.92 1.74-12.96 3.4-18.58ZM2.1 69.89h28.11c-.44 2.91-.89 5.82-1.37 8.73-.31 1.95-.62 3.85-.66 5.83-.03 1.3.88 2.93.96 3.99H.04c-.3-5.46 1.22-12.92 2.06-18.55ZM5.76 46.65c9.12-.19 18.87-.01 28.04 0-.6 5.54-1.99 12.92-2.84 18.57H2.86c.19-1.89.66-4.41.96-6.33l1.94-12.23ZM106.64 46.64c10.85-.22 22.52-.02 33.42-.02h61.35c-2.05 5.1-4.59 8.74-8.76 12.34-8.01 6.49-14.15 6.25-23.8 6.25h-13.96l-51.15-.02c.23-2.02.68-4.48 1-6.51l1.9-12.05ZM113.97.07c5.55-.09 11.23-.02 16.79-.02h46.55c2.77 0 7-.12 9.65.24 3.37.48 6.58 1.73 9.38 3.65 5.28 3.66 7.96 8.53 9.07 14.74h-2.69l-91.66-.01c.84-5.9 1.85-12.76 2.91-18.6ZM99.39 93.15c2.94-.11 6.5-.01 9.48-.02h18.76c-.98 5.67-2.23 12.99-2.93 18.63H96.45l2.93-18.62ZM103.01 69.9c9-.24 19.17-.05 28.24 0-.97 6.17-2 12.36-2.91 18.54h-28.27c.73-5.75 2-12.71 2.93-18.53ZM121.78 36.65l.98-6.5h11.29l-1.12 7.39c-.11.72-.34 1.34-.69 1.86s-.77.97-1.28 1.33c-.5.36-1.06.62-1.67.8-.61.17-1.25.26-1.91.26h-14.63c-.64 0-1.24-.09-1.8-.26s-1.03-.44-1.43-.8c-.39-.36-.68-.8-.86-1.33s-.22-1.14-.11-1.86l1.56-10.23c.11-.7.34-1.31.68-1.85.34-.53.76-.98 1.26-1.34.5-.36 1.06-.63 1.67-.8.62-.17 1.24-.26 1.89-.26h19.51l-.71 4.71h-12.23c-.22 0-.43.05-.62.15a.63.63 0 0 0-.34.49l-1.24 8.22c-.06.29-.01.47.15.54s.36.11.58.11.44-.04.66-.11.35-.25.4-.54ZM161.37 32.74c-.11.74-.4 1.37-.88 1.89-.47.52-.99.96-1.55 1.31.45.29.83.65 1.14 1.08.31.43.43.94.39 1.51l-.49 3.26h-11.27l.48-3.14c-.05-.47-.24-.84-.55-1.11-.32-.27-.64-.45-.97-.56l-.74 4.81h-11.3l2.87-18.73h19.49c.66 0 1.27.09 1.83.26s1.03.44 1.43.8.68.81.86 1.34c.18.53.22 1.15.11 1.85l-.84 5.42Zm-12.17-.21c.22 0 .44-.05.65-.15s.35-.3.39-.59l.52-3.42c.05-.25-.02-.42-.21-.52-.19-.1-.4-.15-.62-.15h-.84l-.74 4.84h.85ZM162.87 41.8l2.87-18.73h11.3l-2.87 18.73h-11.3ZM202.72 37.54c-.11.72-.34 1.34-.68 1.86s-.76.97-1.26 1.33c-.5.36-1.06.62-1.67.8-.61.17-1.25.26-1.91.26h-19.49l2.87-18.73h19.49c.66 0 1.27.09 1.83.26s1.03.44 1.43.8.68.81.86 1.34c.18.53.22 1.15.11 1.85l-1.56 10.23Zm-11.51-.47c.21-.07.34-.25.39-.54l1.25-8.16c.05-.25-.02-.42-.21-.52-.19-.1-.4-.15-.62-.15h-.84l-1.46 9.49h.85c.22 0 .43-.04.64-.11Z"/></svg>