<svg xmlns="http://www.w3.org/2000/svg" version="1.1" xmlns:xlink="http://www.w3.org/1999/xlink" width="100" height="100"><svg xmlns="http://www.w3.org/2000/svg" version="1.1" xmlns:xlink="http://www.w3.org/1999/xlink" width="100" height="100"><svg width="100" height="100" viewBox="0 0 26.45833 26.45833" version="1.1" id="svg1" sodipodi:docname="favicon.svg" inkscape:version="1.3.2 (091e20e, 2023-11-25, custom)" xmlns:inkscape="http://www.inkscape.org/namespaces/inkscape" xmlns:sodipodi="http://sodipodi.sourceforge.net/DTD/sodipodi-0.dtd" xmlns="http://www.w3.org/2000/svg" xmlns:svg="http://www.w3.org/2000/svg">
  <sodipodi:namedview id="namedview1" pagecolor="#ffffff" bordercolor="#999999" borderopacity="1" inkscape:showpageshadow="2" inkscape:pageopacity="0" inkscape:pagecheckerboard="0" inkscape:deskcolor="#d1d1d1" inkscape:zoom="7.6038385" inkscape:cx="33.404181" inkscape:cy="52.276229" inkscape:window-width="1920" inkscape:window-height="1111" inkscape:window-x="-9" inkscape:window-y="-9" inkscape:window-maximized="1" inkscape:current-layer="svg1"></sodipodi:namedview>
  <defs id="defs1"></defs>
  <circle style="fill:#ffffff;stroke:none;stroke-width:0.264583" id="path6" cx="13.229165" cy="13.229165" r="13.229165" inkscape:label="background"></circle>
  <g id="layer1" transform="matrix(1.3346481,0,0,1.3346481,1.285682,1.4148523)" inkscape:label="gplogo">
    <path d="m 4.7909035,5.0824458 c 0.5114124,-0.012154 1.0660589,-0.00205 1.5801739,-0.00205 H 9.373344 C 9.3638807,5.191196 9.3280829,5.3877896 9.3105097,5.5019607 L 9.1780977,6.3396781 7.4229483,6.3384061 H 2.8101073 C 3.1715415,5.5635192 3.9599377,5.1365536 4.7908995,5.0825066 Z M 2.0575184,11.369369 c 0.7397574,-0.01486 1.5403155,0 2.2861533,0 h 4.0460307 c -0.038504,0.343869 -0.1182262,0.770832 -0.1729465,1.116728 l -0.020941,0.141196 h -4.160204 c -0.2121307,0 -0.4911446,0.0047 -0.6985467,-0.02567 C 3.1235798,12.569861 2.9188824,12.494202 2.7364746,12.378677 2.3696389,12.146283 2.1507519,11.786875 2.0575235,11.368692 Z M 5.6576682,8.2272592 c 1.0620068,-0.014197 2.1598206,-0.00127 3.2238555,0 -0.014195,0.1263327 -0.043908,0.2857672 -0.064178,0.4141273 L 8.6849322,9.4824797 H 5.4563501 C 5.5286375,9.0656505 5.5874118,8.6454412 5.6569956,8.2279332 Z" id="path1" style="stroke-width:0.0675576"></path>
    <path d="m 4.6206576,8.2272592 c 0.074312,0 0.015548,-0.00271 0.7586733,-0.00271 C 5.365136,8.3508852 5.183414,9.479775 5.183414,9.479775 L 4.4200121,9.482525 C 4.4922996,9.0650171 4.5510738,8.6454843 4.6206576,8.2273023 Z" class="cls-1" id="path2" style="fill:#cccccb;stroke-width:0.0675576"></path>
    <path d="m 6.668332,9.7972985 c 0.650581,0 1.3133228,-0.00672 1.9632271,0.00132 -0.011488,0.134442 -0.046614,0.3269805 -0.067556,0.4627715 l -0.1222801,0.78975 -1.9686334,0.0013 z" id="path3" style="stroke-width:0.0675576"></path>
    <path d="m 7.1621783,6.6585676 c 0.211456,-0.00541 0.4445301,-7.66e-4 0.6573375,-7.66e-4 H 9.1254074 C 9.0801463,7.0462574 8.9929933,7.5205113 8.9301651,7.9123478 H 6.96491 L 7.1621783,6.6591524 Z M 4.3659644,9.8000032 c 0.2168604,-0.00682 0.462772,-0.00132 0.6809826,-0.00132 H 6.3562169 C 6.3041992,10.191191 6.2251521,10.625587 6.1636752,11.023503 l -0.00204,0.01824 c -0.039858,0.02433 -1.4970809,0.0074 -1.6423314,0.0067 -0.3695401,-7.66e-4 -0.2850928,-0.408725 -0.2445583,-0.66139 0.03243,-0.195243 0.062834,-0.3911602 0.091204,-0.5870771 z M 5.2563761,6.6599184 c 0.1715962,-0.00809 0.3857539,-0.00271 0.5600518,-0.00205 l 1.0282289,0.00127 -0.1945655,1.2538695 H 6.2562294 L 4.6652451,7.9117426 C 4.67944,7.7604151 4.7132128,7.6023287 4.7341542,7.4516752 4.7875252,7.0699731 4.8010384,6.7470493 5.2563761,6.659898 Z" class="cls-1" id="path4" style="fill:#cccccb;stroke-width:0.0675576"></path>
    <path d="M 2.676346,6.6572169 H 4.6584905 C 4.4821637,6.8923178 4.479462,7.0416206 4.4362259,7.326037 l -0.079044,0.5181693 c -0.00275,0.027699 -0.00204,0.039184 -0.015528,0.064179 -0.056068,0.010135 -0.4688509,0.00406 -0.5573501,0.00406 H 2.4466636 C 2.5142202,7.5125014 2.5642129,7.0368968 2.6763592,6.657222 Z M 2.1520975,9.7979752 h 1.8990482 c -0.029723,0.1965935 -0.060128,0.3931858 -0.092557,0.5897788 -0.020941,0.131739 -0.041883,0.260099 -0.044589,0.393861 -0.00204,0.08783 0.059446,0.197945 0.064859,0.269557 H 2.012929 C 1.992655,10.682305 2.095349,10.178325 2.1520975,9.7979752 Z M 2.39936,8.2279332 c 0.6161265,-0.012844 1.2748143,-7.66e-4 1.894319,0 C 4.2531394,8.6022026 4.15924,9.1007798 4.101814,9.4824797 H 2.2034431 c 0.012844,-0.1276834 0.044586,-0.2979293 0.064855,-0.42764 L 2.39936,8.2286099 Z m 6.8152243,-7.66e-4 c 0.7330013,-0.014861 1.5213967,-0.00127 2.2577767,-0.00127 h 4.144667 c -0.138494,0.344541 -0.31009,0.5904502 -0.591806,0.8336579 -0.541136,0.4384505 -0.955942,0.4222367 -1.607873,0.4222367 H 12.474242 L 9.0186643,9.480467 C 9.0342127,9.343999 9.0646072,9.177806 9.0862201,9.0406651 L 9.2145802,8.2265944 Z m 0.4951965,-3.146164 c 0.3749452,-0.00607 0.7586722,-0.00127 1.1342952,-0.00127 h 3.14481 c 0.187137,0 0.472904,-0.00809 0.651932,0.016214 0.227671,0.032428 0.444531,0.1168751 0.633692,0.2465859 0.356705,0.2472599 0.537758,0.5762658 0.612748,0.9958011 H 15.705527 L 9.5131872,6.3375661 C 9.5699366,5.938976 9.638169,5.4755305 9.7097808,5.0809925 Z M 8.72479,11.369277 c 0.1986185,-0.0074 0.4391249,-7.66e-4 0.6404471,-0.0013 h 1.2673819 c -0.0662,0.383051 -0.150653,0.877573 -0.197944,1.258599 H 8.5261694 L 8.7241133,11.368628 Z M 8.9693493,9.7985572 c 0.6080195,-0.01621 1.2950797,-0.00336 1.9078287,0 -0.06553,0.4168318 -0.135115,0.8350138 -0.196594,1.2525218 H 8.7707277 c 0.049321,-0.388455 0.1351167,-0.858658 0.1979449,-1.2518451 z m 1.2680567,-2.2462922 0.0662,-0.4391248 h 0.762728 l -0.07567,0.4992514 c -0.0074,0.048641 -0.02298,0.090527 -0.04661,0.125656 -0.02365,0.035132 -0.05202,0.065532 -0.08647,0.089853 -0.03378,0.024334 -0.07162,0.041886 -0.112821,0.054047 -0.04121,0.01149 -0.08445,0.017567 -0.129037,0.017567 H 9.6273595 c -0.043236,0 -0.083776,-0.00607 -0.1216035,-0.017567 C 9.467923,7.8704576 9.436175,7.8522216 9.409149,7.8279006 9.382804,7.8035916 9.363206,7.7738536 9.351046,7.7380476 9.338896,7.7022416 9.33619,7.6610336 9.343616,7.6123916 L 9.4490087,6.9212754 c 0.00743,-0.047291 0.022977,-0.088499 0.045943,-0.124982 0.022977,-0.035806 0.051346,-0.066206 0.085119,-0.090527 0.033783,-0.024334 0.071616,-0.042562 0.112823,-0.054047 0.041883,-0.01149 0.083765,-0.017567 0.1276834,-0.017567 h 1.3180509 l -0.04797,0.3181975 h -0.826233 c -0.01486,0 -0.02905,0.00337 -0.04188,0.010135 a 0.04256136,0.04256136 0 0 0 -0.02298,0.033102 l -0.08377,0.5553258 c -0.0041,0.019584 -7.66e-4,0.031751 0.01017,0.03648 0.0108,0.00472 0.02431,0.00743 0.03919,0.00743 0.01486,0 0.02972,-0.00271 0.04459,-0.00743 0.01486,-0.00472 0.02365,-0.016878 0.02703,-0.03648 z m 2.67461,-0.2641505 c -0.0074,0.049993 -0.02703,0.092554 -0.05945,0.1276834 -0.03176,0.035129 -0.06688,0.064855 -0.104716,0.088499 0.03041,0.019584 0.05608,0.043913 0.07702,0.072962 0.02094,0.029052 0.02905,0.063505 0.02634,0.1020146 l -0.0331,0.2202377 h -0.761375 l 0.03243,-0.2121308 c -0.0034,-0.031754 -0.01621,-0.056748 -0.03716,-0.07499 -0.02162,-0.018231 -0.04324,-0.030401 -0.06553,-0.037833 l -0.04999,0.3249537 H 11.17308 l 0.19389,-1.2653565 h 1.3167 c 0.04459,0 0.0858,0.00607 0.123632,0.017567 0.03783,0.01149 0.06958,0.029726 0.09661,0.054047 0.02703,0.024309 0.04594,0.054721 0.0581,0.090527 0.01215,0.035806 0.01486,0.077691 0.0074,0.1249819 L 12.912662,7.28744 Z m -0.822177,-0.014197 c 0.01486,0 0.02972,-0.00337 0.04391,-0.010135 0.01419,-0.00677 0.02365,-0.020274 0.02634,-0.039861 l 0.03513,-0.2310461 c 0.0034,-0.016904 -0.0013,-0.028376 -0.01419,-0.035129 -0.01284,-0.00677 -0.02703,-0.010135 -0.04188,-0.010135 H 12.08239 L 12.032397,7.27459 h 0.05742 z m 0.923515,0.6262581 0.193889,-1.2653546 h 0.763402 l -0.19389,1.2653546 z M 15.705527,7.612381 c -0.0074,0.048641 -0.02298,0.090527 -0.04593,0.1256561 -0.02298,0.035131 -0.05135,0.065532 -0.08513,0.089853 -0.03378,0.024334 -0.07162,0.041886 -0.112821,0.054047 -0.04121,0.01149 -0.08445,0.017567 -0.129036,0.017567 H 14.015907 L 14.209799,6.6341464 H 15.5265 c 0.04459,0 0.0858,0.00607 0.123629,0.017567 0.03783,0.01149 0.06959,0.029726 0.09661,0.054047 0.02703,0.024307 0.04594,0.054721 0.0581,0.090527 0.01215,0.035806 0.01486,0.077692 0.0074,0.124982 L 15.70685,7.6123864 Z M 14.927939,7.580628 c 0.01419,-0.00472 0.02298,-0.016877 0.02634,-0.036479 l 0.08445,-0.5512714 c 0.0034,-0.016904 -0.0013,-0.028376 -0.0142,-0.035129 -0.01284,-0.00677 -0.02703,-0.010135 -0.04188,-0.010135 h -0.05675 l -0.09863,0.6411212 h 0.05742 c 0.01486,0 0.02905,-0.00271 0.04324,-0.00743 z" id="path5" style="stroke-width:0.0675576"></path>
  </g>
</svg></svg><style>@media (prefers-color-scheme: light) { :root { filter: none; } }
@media (prefers-color-scheme: dark) { :root { filter: none; } }
</style></svg>